<?xml version="1.0" encoding="utf-8"?>
<!-- Generator: Adobe Illustrator 24.1.3, SVG Export Plug-In . SVG Version: 6.00 Build 0)  -->
<svg version="1.1" xmlns="http://www.w3.org/2000/svg" xmlns:xlink="http://www.w3.org/1999/xlink" x="0px" y="0px"
	 viewBox="0 0 1024 1024" style="enable-background:new 0 0 1024 1024;" xml:space="preserve">
<style type="text/css">
	.st0{fill:#FFFFFF;}
</style>
<g id="Layer_1">
	<rect class="st0" width="1024" height="1024"/>
</g>
<g id="Layer_2">
	<g>
		<path d="M331.67,458.87c6.62-2.06,11.55-7.66,12.65-14.51c6.43-40.1,14.7-50.74,44.48-52.3c32.02-1.69,34.55,77.53,155.89,47.19
			C409.87,519.3,292.74,684.47,285.16,778.01c39.61,32.86,57.3,64.89,43.82,113.76h404.48c0,0-15.17-48.88,6.74-92.69
			s74.15-173.59,65.73-366.56c-6.15-140.83-76.51-271.68-172.69-322.34c-9.34-61.26-46.31-92.06-67.77-104.95
			c-6.84-4.11-15.54,1.02-15.54,8.99v73.87c-10.6-0.18-21.33,0.49-32.2,2.31c0,0-278.67,137.09-296.62,235.95
			C196.78,460.3,291.14,471.51,331.67,458.87z M490.92,753.88c-1,0.52-2.08,0.77-3.14,0.77c-2.44,0-4.79-1.32-6-3.62
			c-1.74-3.31-0.46-7.4,2.85-9.14c3.35-1.76,6.52-3.6,9.72-5.43c127.73-72.9,134.26-196.33,133.3-231.85
			c-0.17-6.07-0.54-9.66-0.57-9.89c-0.44-3.71,2.2-7.08,5.91-7.53c3.62-0.43,7.08,2.21,7.53,5.91
			C640.72,494.82,659.19,665.53,490.92,753.88z M667.68,332.84c1.44-3.44,5.42-5.08,8.84-3.64c3.44,1.43,5.08,5.38,3.65,8.83
			c-1.06,2.56-26.89,63.1-110.67,101.83c-0.92,0.42-1.89,0.62-2.83,0.62c-2.56,0-5-1.45-6.15-3.93c-1.57-3.4-0.09-7.41,3.3-8.99
			c8.11-3.75,15.51-7.76,22.51-11.88c37.62-22.13,59.7-48.21,71.1-65.14C664.5,340.06,667.59,333.04,667.68,332.84z M442.97,152.9
			l19.58-10.69c3.28-1.79,7.4-0.58,9.19,2.7c1.79,3.28,0.58,7.39-2.7,9.19l-19.58,10.69c-1.03,0.56-2.14,0.83-3.24,0.83
			c-2.4,0-4.72-1.28-5.95-3.52C438.49,158.8,439.7,154.69,442.97,152.9z M255.35,298.89c2.48-3.35,61.8-82.65,166.62-135.06
			c3.35-1.66,7.4-0.32,9.08,3.03c1.67,3.34,0.32,7.41-3.03,9.08c-11.78,5.89-22.93,12.18-33.54,18.67
			c-46.78,28.56-82.11,61.27-103.69,84.01c-15.86,16.7-24.33,28.02-24.55,28.32c-1.32,1.79-3.37,2.74-5.45,2.74
			c-1.39,0-2.8-0.43-4.02-1.33C253.77,306.12,253.13,301.89,255.35,298.89z"/>
		<path d="M806.84,971.75c0-28.86-23.39-52.25-52.25-52.25H295.74c-28.86,0-52.25,23.39-52.25,52.25s23.39,52.25,52.25,52.25h458.86
			C783.45,1024,806.84,1000.61,806.84,971.75z"/>
		<path d="M511.79,71.93l2.77-0.46c5.37-0.91,10.78-1.59,16.19-2.04V23.92C520.69,13.57,510.57,6.24,502.6,1.45
			c-6.84-4.11-15.54,1.02-15.54,8.99v74c10.58-5.5,18.37-9.38,22.2-11.27L511.79,71.93z"/>
	</g>
</g>
</svg>
