<?xml version="1.0" encoding="utf-8"?>
<!-- Generator: Adobe Illustrator 24.1.3, SVG Export Plug-In . SVG Version: 6.00 Build 0)  -->
<svg version="1.1" xmlns="http://www.w3.org/2000/svg" xmlns:xlink="http://www.w3.org/1999/xlink" x="0px" y="0px"
	 viewBox="0 0 1024 1024" style="enable-background:new 0 0 1024 1024;" xml:space="preserve">
<style type="text/css">
	.st0{fill:#FFFFFF;}
</style>
<g id="Layer_1">
	<rect class="st0" width="1024" height="1024"/>
</g>
<g id="Layer_2">
	<g>
		<path d="M605.78,493.14l-77.97,0.75l-38.55,0.37l-77.97,0.75c-15.88,0.15-29.26,11.91-31.44,27.64L321.91,868.8
			c-2.7,19.4,12.48,36.66,32.06,36.47l139.91-1.35l38.55-0.37l139.91-1.35c19.59-0.19,34.42-17.74,31.35-37.08l-65.95-344.94
			C635.26,504.49,621.66,492.99,605.78,493.14z M662.82,808.19l5.19,23.22c0.82,3.64-1.48,7.26-5.12,8.07
			c-0.5,0.11-0.99,0.17-1.48,0.17c-3.1,0-5.89-2.14-6.59-5.29l-5.19-23.22c-0.82-3.65,1.48-7.26,5.12-8.07
			C658.4,802.25,662.02,804.55,662.82,808.19z M650.73,793.87c-0.36,0.06-0.72,0.09-1.07,0.09c-3.27,0-6.14-2.37-6.67-5.7
			l-40.15-251.67c-0.59-3.68,1.92-7.15,5.61-7.74c3.69-0.63,7.16,1.93,7.74,5.61l40.15,251.67
			C656.93,789.82,654.42,793.28,650.73,793.87z"/>
		<path d="M639.76,480.67c22.15,0,40.1-17.95,40.1-40.1c0-22.15-17.95-40.1-40.1-40.1H375.22c-22.15,0-40.1,17.95-40.1,40.1
			c0,22.15,17.95,40.1,40.1,40.1H639.76z M371.7,419.23c0-3.74,3.02-6.76,6.76-6.76h256.16c3.74,0,6.76,3.02,6.76,6.76
			s-3.02,6.76-6.76,6.76H378.46C374.72,425.99,371.7,422.97,371.7,419.23z"/>
		<path d="M282.75,1024h458.51c28.83,0,52.21-23.37,52.21-52.21s-23.37-52.21-52.21-52.21H282.75c-28.83,0-52.21,23.37-52.21,52.21
			S253.91,1024,282.75,1024z"/>
		<path d="M395.31,354.65c1.14,16.89,14.88,30.16,31.81,30.16h79.42h79.42c16.93,0,30.67-13.27,31.81-30.16
			C624.3,257.61,664,178.9,690.07,136.8c7.59-12.25-4.88-26.96-18.19-21.42c-22.26,9.27-50.44,25.43-76.41,53.29
			c-28.64-46.21-59.32-71.39-76.11-82.83c20.44-6.27,34.66-26.77,30.41-50.11c-3.19-17.52-17.55-31.86-35.08-35.01
			c-27.88-5.01-52.14,16.29-52.14,43.25c0,19.8,13.17,36.35,31.16,41.86c-16.79,11.44-47.47,36.62-76.11,82.83
			c-25.97-27.86-54.14-44.02-76.41-53.29c-13.31-5.54-25.78,9.16-18.19,21.42C349.08,178.9,388.77,257.61,395.31,354.65z"/>
	</g>
</g>
</svg>
