<?xml version="1.0" encoding="utf-8"?>
<!-- Generator: Adobe Illustrator 24.1.3, SVG Export Plug-In . SVG Version: 6.00 Build 0)  -->
<svg version="1.1" xmlns="http://www.w3.org/2000/svg" xmlns:xlink="http://www.w3.org/1999/xlink" x="0px" y="0px"
	 viewBox="0 0 1024 1024" style="enable-background:new 0 0 1024 1024;" xml:space="preserve">
<style type="text/css">
	.st0{fill:#FFFFFF;}
</style>
<g id="Layer_1">
	<rect class="st0" width="1024" height="1024"/>
</g>
<g id="Layer_2">
	<g>
		<path d="M376.9,420.69c5.57,10.44,16.45,16.96,28.28,16.96h86.39h38.55h86.39c11.83,0,22.71-6.52,28.28-16.96l37.26-69.8
			c11.4-21.35-4.07-47.16-28.28-47.16H530.12h-38.55H367.92c-24.21,0-39.68,25.8-28.28,47.16L376.9,420.69z"/>
		<path d="M353.97,905.27l139.92-1.35l38.55-0.37l139.91-1.35c19.59-0.19,34.42-17.74,31.35-37.08l-65.95-292.18
			c-2.49-15.69-16.09-27.18-31.97-27.03l-77.97,0.75l-38.55,0.37l-77.97,0.75c-15.88,0.15-29.26,11.91-31.44,27.64L321.91,868.8
			C319.21,888.19,334.39,905.46,353.97,905.27z M662.82,808.19l5.19,23.22c0.82,3.64-1.48,7.26-5.12,8.07
			c-0.5,0.11-0.99,0.17-1.48,0.17c-3.1,0-5.89-2.14-6.59-5.29l-5.19-23.22c-0.82-3.64,1.48-7.26,5.12-8.07
			C658.39,802.25,662.01,804.55,662.82,808.19z M608.18,581.66c3.7-0.74,7.23,1.64,7.97,5.29l40.15,198.91
			c0.74,3.66-1.63,7.23-5.29,7.97c-0.46,0.09-0.9,0.13-1.35,0.13c-3.15,0-5.98-2.21-6.62-5.42l-40.15-198.91
			C602.15,585.96,604.52,582.4,608.18,581.66z"/>
		<path d="M419.78,121.71h62.16v100.14c-24.02,9.69-41.01,33.13-41.01,60.62c0,1.83,0.39,3.56,0.54,5.35h50.1h38.55h41.15
			c0.15-1.79,0.54-3.52,0.54-5.35c0-27.49-16.99-50.93-41.01-60.62V121.71h62.16c9.57,0,17.33-7.76,17.33-17.33V90.16
			c0-9.57-7.76-17.33-17.33-17.33h-62.16V17c0-9.39-7.61-17-17-17h-14.87c-9.39,0-17,7.61-17,17v55.83h-62.16
			c-9.57,0-17.33,7.76-17.33,17.33v14.22C402.45,113.95,410.21,121.71,419.78,121.71z"/>
		<path d="M375.22,533.44h264.54c22.15,0,40.1-17.95,40.1-40.1c0-22.15-17.95-40.1-40.1-40.1H375.22c-22.15,0-40.1,17.95-40.1,40.1
			C335.12,515.48,353.07,533.44,375.22,533.44z M569.16,461.21h16.12c3.74,0,6.76,3.02,6.76,6.76c0,3.74-3.02,6.76-6.76,6.76h-16.12
			c-3.74,0-6.76-3.02-6.76-6.76C562.4,464.24,565.42,461.21,569.16,461.21z M378.46,461.21h158.21c3.74,0,6.76,3.02,6.76,6.76
			c0,3.74-3.02,6.76-6.76,6.76H378.46c-3.74,0-6.76-3.02-6.76-6.76C371.7,464.24,374.72,461.21,378.46,461.21z"/>
		<path d="M282.75,1024h458.51c28.83,0,52.21-23.37,52.21-52.21c0-28.83-23.38-52.21-52.21-52.21H282.75
			c-28.83,0-52.21,23.37-52.21,52.21C230.54,1000.63,253.91,1024,282.75,1024z"/>
	</g>
</g>
</svg>
