<?xml version="1.0" encoding="utf-8"?>
<!-- Generator: Adobe Illustrator 24.1.3, SVG Export Plug-In . SVG Version: 6.00 Build 0)  -->
<svg version="1.1" xmlns="http://www.w3.org/2000/svg" xmlns:xlink="http://www.w3.org/1999/xlink" x="0px" y="0px"
	 viewBox="0 0 1024 1024" style="enable-background:new 0 0 1024 1024;" xml:space="preserve">
<style type="text/css">
	.st0{fill:#FFFFFF;}
</style>
<g id="Layer_1">
	<rect y="3.99" class="st0" width="1024" height="1020.01"/>
</g>
<g id="Layer_2">
	<g>
		<path d="M279.57,861.91h464.86c15.05,0,23.15-17.13,14.1-29.15c-40.14-53.33-73.63-126.3-92.54-210.19
			c-17.31-76.8-19.66-150.58-9.68-212.7c2.68-16.68-9.85-31.83-26.75-31.83h-67.96h-99.21h-67.96c-16.9,0-29.43,15.15-26.76,31.83
			c9.98,62.12,7.64,135.9-9.68,212.7c-18.91,83.89-52.4,156.86-92.54,210.19C256.42,844.78,264.52,861.91,279.57,861.91z"/>
		<path d="M840.71,952.95c0-39.24-31.81-71.05-71.05-71.05H254.34c-39.24,0-71.05,31.81-71.05,71.05S215.1,1024,254.34,1024h515.32
			C808.9,1024,840.71,992.19,840.71,952.95z M253.76,915.38c0-4.37,3.54-7.91,7.91-7.91h508.18c4.37,0,7.91,3.54,7.91,7.91
			c0,4.37-3.54,7.91-7.91,7.91H261.67C257.3,923.29,253.76,919.75,253.76,915.38z"/>
		<path d="M367.42,356.42h267.53c30.14,0,54.57-24.43,54.57-54.57c0-30.14-24.43-54.57-54.57-54.57H367.42
			c-30.14,0-54.58,24.43-54.58,54.57C312.85,331.98,337.28,356.42,367.42,356.42z M371.83,268.87h259.43c4.37,0,7.91,3.54,7.91,7.91
			c0,4.37-3.54,7.91-7.91,7.91H371.83c-4.37,0-7.91-3.54-7.91-7.91C363.92,272.41,367.45,268.87,371.83,268.87z"/>
		<path d="M415.12,225.66h172.14c9.51,0,18.44-4.64,23.96-12.38c20.83-29.18,30.42-66.9,22.06-107.04
			C622.45,54.27,580.27,12.68,528.15,2.61c-86.44-16.7-162.07,49.07-162.07,132.5c0,29.11,9.28,55.99,24.96,78.02
			C396.6,220.93,405.54,225.66,415.12,225.66z M605.65,81.98c3.96-1.89,8.66-0.22,10.55,3.72c1.24,2.6,2.42,5.28,3.52,8.04
			c1.62,4.06-0.36,8.66-4.42,10.28c-0.96,0.39-1.95,0.56-2.93,0.56c-3.14,0-6.11-1.89-7.35-4.98c-0.97-2.43-2.01-4.79-3.1-7.07
			C600.04,88.59,601.71,83.86,605.65,81.98z M533.2,21.45c1.55-4.08,6.11-6.13,10.18-4.6c1.33,0.5,32.94,12.69,57.61,44.33
			c2.69,3.45,2.08,8.42-1.37,11.1c-1.44,1.13-3.16,1.68-4.86,1.68c-2.36,0-4.69-1.04-6.24-3.04c-21.84-28-50.46-39.16-50.74-39.27
			C533.7,30.1,531.65,25.53,533.2,21.45z"/>
	</g>
</g>
</svg>
