<?xml version="1.0" encoding="utf-8"?>
<!-- Generator: Adobe Illustrator 24.1.3, SVG Export Plug-In . SVG Version: 6.00 Build 0)  -->
<svg version="1.1" xmlns="http://www.w3.org/2000/svg" xmlns:xlink="http://www.w3.org/1999/xlink" x="0px" y="0px"
	 viewBox="0 0 1024 1024" style="enable-background:new 0 0 1024 1024;" xml:space="preserve">
<style type="text/css">
	.st0{fill:#FFFFFF;}
</style>
<g id="Layer_1">
	<rect class="st0" width="1024" height="1024"/>
</g>
<g id="Layer_2">
	<g>
		<path d="M306.88,880.95h410.24c13.28,0,20.43-15.12,12.44-25.73c-35.43-47.06-64.97-111.46-81.66-185.49
			c-15.28-67.78-17.35-132.89-8.54-187.71c2.36-14.72-8.7-28.09-23.61-28.09h-59.97h-87.55h-59.97c-14.91,0-25.98,13.37-23.61,28.09
			c8.8,54.82,6.74,119.93-8.54,187.71c-16.69,74.03-46.24,138.43-81.67,185.49C286.45,865.84,293.6,880.95,306.88,880.95z"/>
		<path d="M284.62,1024h454.77c34.63,0,62.7-28.07,62.7-62.7c0-34.63-28.07-62.7-62.7-62.7H284.62c-34.63,0-62.7,28.07-62.7,62.7
			C221.92,995.93,249.99,1024,284.62,1024z M291.08,921.16h448.47c3.86,0,6.98,3.12,6.98,6.98c0,3.86-3.12,6.98-6.98,6.98H291.08
			c-3.86,0-6.98-3.12-6.98-6.98C284.1,924.28,287.22,921.16,291.08,921.16z"/>
		<path d="M384.41,434.86h236.1c26.6,0,48.16-21.56,48.16-48.16c0-26.6-21.56-48.16-48.16-48.16h-236.1
			c-26.6,0-48.16,21.56-48.16,48.16C336.25,413.3,357.81,434.86,384.41,434.86z M388.3,357.6h228.95c3.86,0,6.98,3.12,6.98,6.98
			c0,3.86-3.12,6.98-6.98,6.98H388.3c-3.86,0-6.98-3.12-6.98-6.98C381.32,360.72,384.44,357.6,388.3,357.6z"/>
		<path d="M414.42,302.95c5.42,7.88,14.57,12.39,24.13,12.39h146.88c9.57,0,18.71-4.51,24.13-12.39
			c13.07-19,20.77-41.97,20.77-66.78c0-40.84-46.21-108.67-80.88-153.81c9.89-11.38,14.97-27.06,11.02-44.11
			c-4.22-18.18-18.95-33-37.18-37c-32.44-7.13-61.14,17.38-61.14,48.59c0,12.5,4.76,23.78,12.36,32.53
			c-34.67,45.14-80.88,112.97-80.88,153.81C393.65,260.98,401.35,283.95,414.42,302.95z"/>
	</g>
</g>
</svg>
