<?xml version="1.0" encoding="utf-8"?>
<!-- Generator: Adobe Illustrator 24.1.3, SVG Export Plug-In . SVG Version: 6.00 Build 0)  -->
<svg version="1.1" xmlns="http://www.w3.org/2000/svg" xmlns:xlink="http://www.w3.org/1999/xlink" x="0px" y="0px"
	 viewBox="0 0 1024 1024" style="enable-background:new 0 0 1024 1024;" xml:space="preserve">
<style type="text/css">
	.st0{display:none;}
	.st1{display:inline;fill:#FFFFFF;}
</style>
<g id="Layer_1" class="st0">
	<rect class="st1" width="1024" height="1024"/>
</g>
<g id="Layer_2">
	<g>
		<path d="M257.43,846.46h509.15c16.48,0,25.36-18.76,15.45-31.93c-43.97-58.41-80.64-138.33-101.35-230.21
			c-18.96-84.12-21.53-164.93-10.6-232.96c2.93-18.27-10.79-34.87-29.3-34.87h-74.43H457.67h-74.43c-18.51,0-32.24,16.59-29.3,34.87
			c10.93,68.04,8.36,148.84-10.6,232.96c-20.72,91.88-57.39,171.8-101.35,230.21C232.07,827.7,240.94,846.46,257.43,846.46z
			 M684.24,677.82c3.77,8.89,7.85,17.43,12.11,25.41c2.25,4.22,0.65,9.47-3.57,11.73c-1.3,0.69-2.7,1.02-4.07,1.02
			c-3.1,0-6.09-1.67-7.66-4.59c-4.49-8.43-8.78-17.44-12.75-26.78c-1.88-4.41,0.18-9.49,4.58-11.36
			C677.29,671.35,682.37,673.42,684.24,677.82z M624.55,361.32c0.33-4.78,4.59-8.35,9.25-8.04c4.77,0.33,8.38,4.47,8.05,9.24
			c-0.05,0.66-1.84,28.71-0.96,70.03c0.94,43.98,5,103.02,17.52,161.04c3.92,18.17,8.59,36.23,14.35,53.65
			c1.51,4.54-0.96,9.44-5.51,10.94c-0.9,0.3-1.82,0.44-2.72,0.44c-3.64,0-7.02-2.3-8.23-5.95
			C613.77,524.08,624.09,367.9,624.55,361.32z"/>
		<path d="M794.21,1024c42.97,0,77.82-34.84,77.82-77.82c0-42.98-34.84-77.82-77.82-77.82H229.8c-42.98,0-77.82,34.84-77.82,77.82
			c0,42.98,34.84,77.82,77.82,77.82H794.21z M237.82,896.37h556.59c4.79,0,8.67,3.88,8.67,8.67c0,4.79-3.88,8.67-8.67,8.67H237.82
			c-4.79,0-8.67-3.88-8.67-8.67C229.16,900.24,233.03,896.37,237.82,896.37z"/>
		<path d="M321.05,233.05c0,33.01,24.77,59.77,55.33,59.77h271.23c30.56,0,55.33-26.76,55.33-59.77l42.61-138.58
			c8.05-26.18-9.99-53.19-35.52-53.19h-1.06V13.34C708.97,5.97,703,0,695.64,0h-49.11c-7.36,0-13.34,5.97-13.34,13.34v27.94h-33.42
			V13.34C599.77,5.97,593.8,0,586.43,0h-49.11c-7.36,0-13.34,5.97-13.34,13.34v27.94H512h-21.43V13.34C490.57,5.97,484.6,0,477.23,0
			h-49.11c-7.37,0-13.34,5.97-13.34,13.34v27.94h-33.42V13.34c0-7.37-5.97-13.34-13.34-13.34h-49.11c-7.37,0-13.34,5.97-13.34,13.34
			v29.04c-20.89,5.14-34.27,28.89-27.14,52.08L321.05,233.05z"/>
	</g>
</g>
</svg>
